<?xml version="1.0" encoding="UTF-8"?>
<svg width="24px" height="24px" viewBox="0 0 24 24" version="1.1" xmlns="http://www.w3.org/2000/svg" xmlns:xlink="http://www.w3.org/1999/xlink">
    <!-- Generator: Sketch 61 (89581) - https://sketch.com -->
    <title>icon / h24pt / back</title>
    <desc>Created with Sketch.</desc>
    <g id="icon-/-h24pt-/-back" stroke="none" stroke-width="1" fill="none" fill-rule="evenodd">
        <rect id="icon-/-h24pt-/-占位" fill="#FFFFFF" opacity="0" x="0" y="0" width="24" height="24"></rect>
        <path d="M10.3287362,4.29289322 C10.7110609,3.90236893 11.3309317,3.90236893 11.7132565,4.29289322 C12.0661716,4.65337718 12.0933189,5.22060824 11.7946984,5.61289944 L11.7132565,5.70710678 L6.24475092,11.2928932 C5.89183579,11.6533772 5.86468848,12.2206082 6.16330897,12.6128994 L6.24475092,12.7071068 L11.7132565,18.2928932 C12.0955812,18.6834175 12.0955812,19.3165825 11.7132565,19.7071068 C11.3603413,20.0675907 10.80502,20.0953203 10.4209655,19.7902954 L10.3287362,19.7071068 L4.86023063,14.1213203 C3.75913542,12.9966104 3.71509162,11.2010475 4.7280992,10.0226693 L4.86023063,9.87867966 L10.3287362,4.29289322 Z" id="路径-35" fill="#152334" fill-rule="nonzero"></path>
    </g>
</svg>