<?xml version="1.0" encoding="UTF-8"?>
<svg width="24px" height="24px" viewBox="0 0 24 24" version="1.1" xmlns="http://www.w3.org/2000/svg" xmlns:xlink="http://www.w3.org/1999/xlink">
    <!-- Generator: Sketch 60.1 (88133) - https://sketch.com -->
    <title>icon / h24pt / manage</title>
    <desc>Created with Sketch.</desc>
    <g id="icon-/-h24pt-/-manage" stroke="none" stroke-width="1" fill="none" fill-rule="evenodd">
        <rect id="icon-/-h24pt-/-占位" fill="#FFFFFF" opacity="0" x="0" y="0" width="24" height="24"></rect>
        <path d="M4,3 C4.51283584,3 4.93550716,3.38604019 4.99327227,3.88337887 L5,4 L5,18 C5,18.5128358 5.38604019,18.9355072 5.88337887,18.9932723 L6,19 L14,19 C14.5522847,19 15,19.4477153 15,20 C15,20.5128358 14.6139598,20.9355072 14.1166211,20.9932723 L14,21 L6,21 C4.40231912,21 3.09633912,19.75108 3.00509269,18.1762728 L3,18 L3,4 C3,3.44771525 3.44771525,3 4,3 Z M18,19 L20,19 C20.5522847,19 21,19.4477153 21,20 C21,20.5522847 20.5522847,21 20,21 L18,21 C17.4477153,21 17,20.5522847 17,20 C17,19.4477153 17.4477153,19 18,19 Z" id="路径-5" fill="#FFFFFF"></path>
        <path d="M20,11 C20.5128358,11 20.9355072,11.3860402 20.9932723,11.8833789 L21,12 L21,16 C21,16.5522847 20.5522847,17 20,17 C19.4871642,17 19.0644928,16.6139598 19.0067277,16.1166211 L19,16 L19,12 C19,11.4477153 19.4477153,11 20,11 Z M16,12 C16.5128358,12 16.9355072,12.3860402 16.9932723,12.8833789 L17,13 L17,16 C17,16.5522847 16.5522847,17 16,17 C15.4871642,17 15.0644928,16.6139598 15.0067277,16.1166211 L15,16 L15,13 C15,12.4477153 15.4477153,12 16,12 Z M12,11 C12.5128358,11 12.9355072,11.3860402 12.9932723,11.8833789 L13,12 L13,16 C13,16.5522847 12.5522847,17 12,17 C11.4871642,17 11.0644928,16.6139598 11.0067277,16.1166211 L11,16 L11,12 C11,11.4477153 11.4477153,11 12,11 Z M8,13 C8.51283584,13 8.93550716,13.3860402 8.99327227,13.8833789 L9,14 L9,16 C9,16.5522847 8.55228475,17 8,17 C7.48716416,17 7.06449284,16.6139598 7.00672773,16.1166211 L7,16 L7,14 C7,13.4477153 7.44771525,13 8,13 Z" id="形状结合" fill="#FFFFFF"></path>
        <path d="M20,4 L20.0190181,4.00017973 C20.0424569,4.0006228 20.0658831,4.00188502 20.0892501,4.00396641 L20,4 C20.0506203,4 20.1003621,4.00376119 20.1489612,4.01101934 C20.165949,4.01362808 20.1833753,4.01670217 20.2007258,4.02024007 C20.2227461,4.0246398 20.2444365,4.02983363 20.2658396,4.03572097 C20.2814633,4.04009773 20.2968513,4.04472872 20.3121425,4.04973809 C20.3317977,4.05612249 20.3515792,4.06331574 20.3710585,4.07110396 C20.3887956,4.07819642 20.4060985,4.08567905 20.4232215,4.09367336 C20.4438914,4.10337664 20.4642939,4.11379392 20.484277,4.12487577 C20.4963944,4.13149883 20.5086131,4.13860692 20.5207088,4.14599545 C20.546275,4.1617187 20.5711307,4.17849009 20.5951593,4.19631351 C20.602603,4.20175344 20.6098424,4.20728448 20.6170223,4.21292769 C20.6801818,4.26255171 20.7374483,4.31981825 20.787214,4.38324992 L20.7071068,4.29289322 C20.7425008,4.32828727 20.774687,4.36567442 20.8036654,4.40469339 C20.8215099,4.42886931 20.8382813,4.45372505 20.8539326,4.47933981 C20.8613931,4.49138689 20.8685012,4.50360556 20.8753288,4.5159379 C20.8862061,4.53570605 20.8966234,4.5561086 20.9063462,4.57690085 C20.914321,4.5939015 20.9218036,4.61120435 20.9287745,4.62866398 C20.9366843,4.6484208 20.9438775,4.66820232 20.9504533,4.68826359 C20.9552713,4.70314866 20.9599023,4.71853672 20.9641549,4.73400703 C20.9701664,4.75556352 20.9753602,4.77725392 20.9798348,4.7992059 C20.9832978,4.81662474 20.9863719,4.83405099 20.9889822,4.85153313 C20.9905825,4.86176411 20.9920139,4.87254508 20.9932723,4.88337887 L20.9962979,4.9137692 C20.9978436,4.93173451 20.9989053,4.94973363 20.9994829,4.96774538 L21,5 L21,8 C21,8.55228475 20.5522847,9 20,9 C19.4871642,9 19.0644928,8.61395981 19.0067277,8.11662113 L19,8 L18.9999632,7.414 L16.7071068,9.70710678 C16.3845392,10.0296744 15.8895444,10.0898229 15.5026313,9.86761708 L15.4,9.8 L12.175,7.381 L8.78086881,11.624695 C8.46239846,12.022783 7.90169895,12.1129831 7.47812274,11.8531452 L7.37530495,11.7808688 C6.97721701,11.4623985 6.88701689,10.901699 7.14685485,10.4781227 L7.21913119,10.375305 L11.2191312,5.37530495 C11.5305891,4.98598256 12.0754669,4.88990257 12.497309,5.13231797 L12.6,5.2 L15.906,7.679 L17.5849632,6 L17,6 C16.4871642,6 16.0644928,5.61395981 16.0067277,5.11662113 L16,5 C16,4.48716416 16.3860402,4.06449284 16.8833789,4.00672773 L17,4 L20,4 Z" id="形状结合" fill="#FFFFFF"></path>
    </g>
</svg>