<?xml version="1.0" encoding="UTF-8"?>
<svg width="24px" height="24px" viewBox="0 0 24 24" version="1.1" xmlns="http://www.w3.org/2000/svg" xmlns:xlink="http://www.w3.org/1999/xlink">
    <!-- Generator: Sketch 60.1 (88133) - https://sketch.com -->
    <g id="icon-/-h24pt-/-home" stroke="none" stroke-width="1" fill="none" fill-rule="evenodd">
        <rect id="icon-/-h24pt-/-占位" fill="#FFFFFF" opacity="0" x="0" y="0" width="24" height="24"></rect>
        <path d="M11.243177,2.34638013 C11.6135488,1.91752854 12.2573041,1.88689628 12.6667307,2.25448336 L12.756823,2.34638013 L22.256823,13.3463801 C22.7920636,13.9661323 22.3942055,14.9132244 21.6093703,14.9944087 L21.5,15 L20,15 C20,15.5522847 19.5522847,16 19,16 C18.4871642,16 18.0644928,15.6139598 18.0067277,15.1166211 L18,15 L18,14 C18,13.4871642 18.3860402,13.0644928 18.8833789,13.0067277 L19,13 L19.315,13 L12,4.529 L4.684,13 L5,13 C5.51283584,13 5.93550716,13.3860402 5.99327227,13.8833789 L6,14 L6,19 C6,19.5128358 6.38604019,19.9355072 6.88337887,19.9932723 L7,20 L9,20 L9,18 C9,16.4023191 10.24892,15.0963391 11.8237272,15.0050927 L12,15 C13.5976809,15 14.9036609,16.24892 14.9949073,17.8237272 L15,18 L15,20 L17,20 C17.5128358,20 17.9355072,19.6139598 17.9932723,19.1166211 L18,19 C18,18.4477153 18.4477153,18 19,18 C19.5522847,18 20,18.4477153 20,19 C20,20.5976809 18.75108,21.9036609 17.1762728,21.9949073 L17,22 L14,22 C13.4871642,22 13.0644928,21.6139598 13.0067277,21.1166211 L13,21 L13,18 C13,17.4477153 12.5522847,17 12,17 C11.4871642,17 11.0644928,17.3860402 11.0067277,17.8833789 L11,18 L11,21 C11,21.5128358 10.6139598,21.9355072 10.1166211,21.9932723 L10,22 L7,22 C5.40231912,22 4.09633912,20.75108 4.00509269,19.1762728 L4,19 L4,15 L2.5,15 C1.6811134,15 1.22438027,14.0798537 1.67592202,13.4328087 L1.74317699,13.3463801 L11.243177,2.34638013 Z" id="路径" fill="#FFFFFF" fill-rule="nonzero"></path>
    </g>
</svg>
