<?xml version="1.0" encoding="UTF-8"?>
<svg width="24px" height="24px" viewBox="0 0 24 24" version="1.1" xmlns="http://www.w3.org/2000/svg" xmlns:xlink="http://www.w3.org/1999/xlink">
    <!-- Generator: Sketch 61 (89581) - https://sketch.com -->
    <title>icon / h24pt / data 1</title>
    <desc>Created with Sketch.</desc>
    <defs>
        <rect id="path-1" x="8" y="14" width="8" height="4" rx="2"></rect>
        <filter x="-112.5%" y="-175.0%" width="275.0%" height="450.0%" filterUnits="objectBoundingBox" id="filter-2">
            <feOffset dx="-2" dy="0" in="SourceAlpha" result="shadowOffsetOuter1"></feOffset>
            <feGaussianBlur stdDeviation="2" in="shadowOffsetOuter1" result="shadowBlurOuter1"></feGaussianBlur>
            <feColorMatrix values="0 0 0 0 0.062745098   0 0 0 0 0.882352941   0 0 0 0 0.231372549  0 0 0 0.32 0" type="matrix" in="shadowBlurOuter1"></feColorMatrix>
        </filter>
    </defs>
    <g id="icon-/-h24pt-/-data-1" stroke="none" stroke-width="1" fill="none" fill-rule="evenodd">
        <rect id="icon-/-h24pt-/-占位" fill="#FFFFFF" opacity="0" x="0" y="0" width="24" height="24"></rect>
        <path d="M18,4 C19.1045695,4 20,4.8954305 20,6 L20,18 C20,19.1045695 19.1045695,20 18,20 C16.8954305,20 16,19.1045695 16,18 L16,6 C16,4.8954305 16.8954305,4 18,4 Z M6,8 C7.1045695,8 8,8.8954305 8,10 L8,18 C8,19.1045695 7.1045695,20 6,20 C4.8954305,20 4,19.1045695 4,18 L4,10 C4,8.8954305 4.8954305,8 6,8 Z" id="形状结合" fill="#152334"></path>
        <g id="矩形备份-2" transform="translate(12.000000, 16.000000) rotate(-90.000000) translate(-12.000000, -16.000000) ">
            <use fill="black" fill-opacity="1" filter="url(#filter-2)" xlink:href="#path-1"></use>
            <use fill="#1DDB44" fill-rule="evenodd" xlink:href="#path-1"></use>
        </g>
    </g>
</svg>