<?xml version="1.0" encoding="UTF-8"?>
<svg width="24px" height="24px" viewBox="0 0 24 24" version="1.1" xmlns="http://www.w3.org/2000/svg" xmlns:xlink="http://www.w3.org/1999/xlink">
    <!-- Generator: Sketch 61 (89581) - https://sketch.com -->
    <title>icon / h24pt / filter</title>
    <desc>Created with Sketch.</desc>
    <g id="icon-/-h24pt-/-filter" stroke="none" stroke-width="1" fill="none" fill-rule="evenodd">
        <rect id="icon-/-h24pt-/-占位" fill="#FFFFFF" opacity="0" x="0" y="0" width="24" height="24"></rect>
        <path d="M10.5,5 L19.5,5 C20.3284271,5 21,5.67157288 21,6.5 C21,7.32842712 20.3284271,8 19.5,8 L10.5,8 C9.67157288,8 9,7.32842712 9,6.5 C9,5.67157288 9.67157288,5 10.5,5 Z" id="矩形" fill="#152334"></path>
        <path d="M10.5,17 L19.5,17 C20.3284271,17 21,17.6715729 21,18.5 C21,19.3284271 20.3284271,20 19.5,20 L10.5,20 C9.67157288,20 9,19.3284271 9,18.5 C9,17.6715729 9.67157288,17 10.5,17 Z" id="矩形备份" fill="#152334"></path>
        <path d="M10.5,11 L15.5,11 C16.3284271,11 17,11.6715729 17,12.5 C17,13.3284271 16.3284271,14 15.5,14 L10.5,14 C9.67157288,14 9,13.3284271 9,12.5 C9,11.6715729 9.67157288,11 10.5,11 Z" id="矩形备份-2" fill="#152334"></path>
        <circle id="椭圆形" fill="#152334" cx="4.5" cy="12.5" r="1.5"></circle>
        <circle id="椭圆形备份-2" fill="#152334" cx="4.5" cy="18.5" r="1.5"></circle>
        <circle id="椭圆形备份" fill="#152334" cx="4.5" cy="6.5" r="1.5"></circle>
    </g>
</svg>