<?xml version="1.0" encoding="UTF-8"?>
<svg width="24px" height="24px" viewBox="0 0 24 24" version="1.1" xmlns="http://www.w3.org/2000/svg" xmlns:xlink="http://www.w3.org/1999/xlink">
    <!-- Generator: Sketch 61 (89581) - https://sketch.com -->
    <title>icon / h24pt / 占位</title>
    <desc>Created with Sketch.</desc>
    <defs>
        <path d="M13.2928932,6.29289322 C13.6533772,5.93240926 14.2206082,5.90467972 14.6128994,6.20970461 L14.7071068,6.29289322 L15.7071068,7.29289322 C16.0976311,7.68341751 16.0976311,8.31658249 15.7071068,8.70710678 C15.3466228,9.06759074 14.7793918,9.09532028 14.3871006,8.79029539 L14.2928932,8.70710678 L13.2928932,7.70710678 C12.9023689,7.31658249 12.9023689,6.68341751 13.2928932,6.29289322 Z" id="path-1"></path>
        <filter x="-233.3%" y="-166.7%" width="566.7%" height="566.7%" filterUnits="objectBoundingBox" id="filter-2">
            <feOffset dx="0" dy="2" in="SourceAlpha" result="shadowOffsetOuter1"></feOffset>
            <feGaussianBlur stdDeviation="2" in="shadowOffsetOuter1" result="shadowBlurOuter1"></feGaussianBlur>
            <feColorMatrix values="0 0 0 0 0.11372549   0 0 0 0 0.858823529   0 0 0 0 0.266666667  0 0 0 0.4 0" type="matrix" in="shadowBlurOuter1"></feColorMatrix>
        </filter>
        <path d="M13.2928932,6.29289322 C13.6533772,5.93240926 14.2206082,5.90467972 14.6128994,6.20970461 L14.7071068,6.29289322 L15.7071068,7.29289322 C16.0976311,7.68341751 16.0976311,8.31658249 15.7071068,8.70710678 C15.3466228,9.06759074 14.7793918,9.09532028 14.3871006,8.79029539 L14.2928932,8.70710678 L13.2928932,7.70710678 C12.9023689,7.31658249 12.9023689,6.68341751 13.2928932,6.29289322 Z" id="path-3"></path>
        <filter x="-233.3%" y="-166.7%" width="566.7%" height="566.7%" filterUnits="objectBoundingBox" id="filter-4">
            <feOffset dx="0" dy="2" in="SourceAlpha" result="shadowOffsetOuter1"></feOffset>
            <feGaussianBlur stdDeviation="2" in="shadowOffsetOuter1" result="shadowBlurOuter1"></feGaussianBlur>
            <feColorMatrix values="0 0 0 0 0.11372549   0 0 0 0 0.858823529   0 0 0 0 0.266666667  0 0 0 0.4 0" type="matrix" in="shadowBlurOuter1"></feColorMatrix>
        </filter>
    </defs>
    <g id="PN-数据统计-iPhone" stroke="none" stroke-width="1" fill="none" fill-rule="evenodd">
        <g id="2.0.0iPhone-经营概况" transform="translate(-8.000000, -588.000000)">
            <rect fill="#F1F4F8" x="0" y="0" width="375" height="828"></rect>
            <rect id="矩形" fill="#FFFFFF" x="0" y="572" width="375" height="256"></rect>
            <g id="编组-3" transform="translate(0.000000, 588.000000)">
                <g id="标题-经营概况" transform="translate(8.000000, 0.000000)">
                    <g id="标题-今日数据汇总">
                        <g id="icon-/-h24pt-/-proportion_high备份">
                            <rect id="icon-/-h24pt-/-占位" fill="#FFFFFF" fill-rule="evenodd" opacity="0" x="0" y="0" width="24" height="24"></rect>
                            <g id="路径-34备份" fill-rule="nonzero" transform="translate(14.500000, 7.500000) scale(-1, 1) translate(-14.500000, -7.500000) ">
                                <use fill="black" fill-opacity="1" filter="url(#filter-2)" xlink:href="#path-1"></use>
                                <use fill="#1DDB44" xlink:href="#path-1"></use>
                            </g>
                            <path d="M12,2 C17.5228475,2 22,6.4771525 22,12 C22,17.5228475 17.5228475,22 12,22 C6.4771525,22 2,17.5228475 2,12 C2,6.4771525 6.4771525,2 12,2 Z M12,4 C7.581722,4 4,7.581722 4,12 C4,16.418278 7.581722,20 12,20 C16.418278,20 20,16.418278 20,12 C20,7.581722 16.418278,4 12,4 Z M9.71850414,6.30432455 L9.8,6.4 L12.5,9.99994115 L16,10 C16.5522847,10 17,10.4477153 17,11 C17,11.5128358 16.6139598,11.9355072 16.1166211,11.9932723 L16,12 L13,12 L13,14 L16,14 C16.5522847,14 17,14.4477153 17,15 C17,15.5128358 16.6139598,15.9355072 16.1166211,15.9932723 L16,16 L13,16 L13,17 C13,17.5522847 12.5522847,18 12,18 C11.4871642,18 11.0644928,17.6139598 11.0067277,17.1166211 L11,17 L11,16 L8,16 C7.44771525,16 7,15.5522847 7,15 C7,14.4871642 7.38604019,14.0644928 7.88337887,14.0067277 L8,14 L11,14 L11,12 L8,12 C7.44771525,12 7,11.5522847 7,11 C7,10.4871642 7.38604019,10.0644928 7.88337887,10.0067277 L8,10 L9.999,9.99994115 L8.2,7.6 C7.86862915,7.1581722 7.9581722,6.53137085 8.4,6.2 C8.80784105,5.89411922 9.37329269,5.94688696 9.71850414,6.30432455 Z" id="形状结合" fill="#152334" fill-rule="evenodd"></path>
                        </g>
                        <g id="icon-/-h24pt-/-data">
                            <rect id="icon-/-h24pt-/-占位" fill="#FFFFFF" opacity="0" x="0" y="0" width="24" height="24"></rect>
                            <g id="路径-34备份" fill-rule="nonzero" transform="translate(14.500000, 7.500000) scale(-1, 1) translate(-14.500000, -7.500000) ">
                                <use fill="black" fill-opacity="1" filter="url(#filter-4)" xlink:href="#path-3"></use>
                                <use fill="#1DDB44" xlink:href="#path-3"></use>
                            </g>
                            <path d="M12,2 C17.5228475,2 22,6.4771525 22,12 C22,17.5228475 17.5228475,22 12,22 C6.4771525,22 2,17.5228475 2,12 C2,6.4771525 6.4771525,2 12,2 Z M12,4 C7.581722,4 4,7.581722 4,12 C4,16.418278 7.581722,20 12,20 C16.418278,20 20,16.418278 20,12 C20,7.581722 16.418278,4 12,4 Z M9.71850414,6.30432455 L9.8,6.4 L12.5,9.99994115 L16,10 C16.5522847,10 17,10.4477153 17,11 C17,11.5128358 16.6139598,11.9355072 16.1166211,11.9932723 L16,12 L13,12 L13,14 L16,14 C16.5522847,14 17,14.4477153 17,15 C17,15.5128358 16.6139598,15.9355072 16.1166211,15.9932723 L16,16 L13,16 L13,17 C13,17.5522847 12.5522847,18 12,18 C11.4871642,18 11.0644928,17.6139598 11.0067277,17.1166211 L11,17 L11,16 L8,16 C7.44771525,16 7,15.5522847 7,15 C7,14.4871642 7.38604019,14.0644928 7.88337887,14.0067277 L8,14 L11,14 L11,12 L8,12 C7.44771525,12 7,11.5522847 7,11 C7,10.4871642 7.38604019,10.0644928 7.88337887,10.0067277 L8,10 L9.999,9.99994115 L8.2,7.6 C7.86862915,7.1581722 7.9581722,6.53137085 8.4,6.2 C8.80784105,5.89411922 9.37329269,5.94688696 9.71850414,6.30432455 Z" id="形状结合" fill="#152334"></path>
                        </g>
                    </g>
                </g>
            </g>
        </g>
    </g>
</svg>